<svg id="Group_193" data-name="Group 193" xmlns="http://www.w3.org/2000/svg" xmlns:xlink="http://www.w3.org/1999/xlink" width="291" height="114.685" viewBox="0 0 291 114.685">
  <defs>
    <clipPath id="clip-path">
      <rect id="Rectangle_33" data-name="Rectangle 33" width="291" height="114.685" fill="#035289"/>
    </clipPath>
  </defs>
  <g id="Group_192" data-name="Group 192" clip-path="url(#clip-path)">
    <path id="Path_8" data-name="Path 8" d="M0,111.449V100.441H2.163l4.505,7.352v-7.352H8.733v11.008H6.5L2.065,104.27v7.179Zm12.415-5.542-1.915-.346a2.978,2.978,0,0,1,1.111-1.712,4.075,4.075,0,0,1,2.343-.555,5.058,5.058,0,0,1,2.1.334,2.086,2.086,0,0,1,.972.848,4.333,4.333,0,0,1,.282,1.888l-.022,2.463a8.684,8.684,0,0,0,.1,1.551,4.6,4.6,0,0,0,.38,1.07H15.681q-.083-.211-.2-.622c-.034-.126-.06-.209-.075-.249a3.813,3.813,0,0,1-1.156.789,3.316,3.316,0,0,1-1.314.262,2.716,2.716,0,0,1-1.941-.669,2.222,2.222,0,0,1-.709-1.689,2.268,2.268,0,0,1,.323-1.206,2.111,2.111,0,0,1,.9-.811,7.154,7.154,0,0,1,1.678-.492,11.382,11.382,0,0,0,2.05-.519v-.21a1.1,1.1,0,0,0-.3-.867,1.811,1.811,0,0,0-1.134-.258,1.507,1.507,0,0,0-.879.221,1.538,1.538,0,0,0-.51.776m2.823,1.712q-.406.134-1.284.323a3.841,3.841,0,0,0-1.149.368.88.88,0,0,0-.413.744,1.029,1.029,0,0,0,.33.764,1.151,1.151,0,0,0,.841.324,1.828,1.828,0,0,0,1.088-.376,1.312,1.312,0,0,0,.5-.7,4.156,4.156,0,0,0,.083-1.028Zm7.579-4.145v1.682H21.375v3.213a8.192,8.192,0,0,0,.04,1.137.474.474,0,0,0,.189.268.6.6,0,0,0,.357.1,2.743,2.743,0,0,0,.848-.2l.18,1.636a4.192,4.192,0,0,1-1.667.315,2.647,2.647,0,0,1-1.029-.191,1.5,1.5,0,0,1-.671-.5,1.942,1.942,0,0,1-.3-.823,10.262,10.262,0,0,1-.067-1.486v-3.477h-.969v-1.682h.969v-1.586l2.117-1.231v2.817Zm1.233-3.034h2.11v1.953H24.05Zm0,3.034h2.11v7.974H24.05Zm3.555,3.874a4.317,4.317,0,0,1,.518-2.035,3.568,3.568,0,0,1,1.468-1.5,4.37,4.37,0,0,1,2.121-.517,3.978,3.978,0,0,1,2.966,1.175,4.058,4.058,0,0,1,1.156,2.969,4.109,4.109,0,0,1-1.167,3,3.951,3.951,0,0,1-2.94,1.19,4.632,4.632,0,0,1-2.091-.5,3.4,3.4,0,0,1-1.513-1.453,4.842,4.842,0,0,1-.518-2.332m2.162.114a2.638,2.638,0,0,0,.564,1.816,1.841,1.841,0,0,0,2.775,0,2.676,2.676,0,0,0,.559-1.832,2.629,2.629,0,0,0-.559-1.8,1.841,1.841,0,0,0-2.775,0,2.645,2.645,0,0,0-.564,1.819m14.742,3.986H42.4v-4.07a6.306,6.306,0,0,0-.135-1.671,1.167,1.167,0,0,0-.439-.589,1.254,1.254,0,0,0-.732-.21,1.693,1.693,0,0,0-.983.3,1.509,1.509,0,0,0-.6.8,6.881,6.881,0,0,0-.161,1.832v3.612H37.24v-7.974H39.2v1.171a3.272,3.272,0,0,1,3.905-1.1,2.142,2.142,0,0,1,.875.643,2.322,2.322,0,0,1,.413.885,6.6,6.6,0,0,1,.116,1.42ZM48,105.908l-1.915-.346a2.979,2.979,0,0,1,1.112-1.712,4.07,4.07,0,0,1,2.342-.555,5.053,5.053,0,0,1,2.1.334,2.086,2.086,0,0,1,.972.848,4.333,4.333,0,0,1,.282,1.888l-.022,2.463a8.584,8.584,0,0,0,.1,1.551,4.558,4.558,0,0,0,.379,1.07H51.262c-.056-.14-.123-.348-.2-.622-.034-.126-.059-.209-.075-.249a3.813,3.813,0,0,1-1.156.789,3.316,3.316,0,0,1-1.314.262,2.716,2.716,0,0,1-1.941-.669,2.222,2.222,0,0,1-.709-1.689,2.268,2.268,0,0,1,.323-1.206,2.116,2.116,0,0,1,.9-.811,7.154,7.154,0,0,1,1.678-.492,11.382,11.382,0,0,0,2.05-.519v-.21a1.1,1.1,0,0,0-.3-.867,1.809,1.809,0,0,0-1.134-.258,1.507,1.507,0,0,0-.879.221,1.538,1.538,0,0,0-.51.776m2.823,1.712a13.185,13.185,0,0,1-1.284.323,3.85,3.85,0,0,0-1.149.368.88.88,0,0,0-.413.744,1.029,1.029,0,0,0,.33.764,1.151,1.151,0,0,0,.841.324,1.833,1.833,0,0,0,1.089-.376,1.321,1.321,0,0,0,.5-.7,4.169,4.169,0,0,0,.082-1.028Zm3.923-7.179h2.11v11.008h-2.11Zm8.1,11.008V100.441H71V102.3h-5.94v2.44h5.527V106.6H65.062v3h6.15v1.854Zm17.265,0h-2.11v-4.07a6.268,6.268,0,0,0-.135-1.671,1.162,1.162,0,0,0-.439-.589,1.249,1.249,0,0,0-.732-.21,1.7,1.7,0,0,0-.984.3,1.514,1.514,0,0,0-.6.8,6.919,6.919,0,0,0-.161,1.832v3.612H72.837v-7.974H74.8v1.171a3.191,3.191,0,0,1,2.628-1.351,3.158,3.158,0,0,1,1.276.251,2.146,2.146,0,0,1,.876.643,2.308,2.308,0,0,1,.412.885,6.533,6.533,0,0,1,.117,1.42Zm4.1,0-3.214-7.974h2.215l1.5,4.07.435,1.36c.115-.347.188-.574.218-.684.07-.225.146-.451.225-.676l1.517-4.07h2.17l-3.169,7.974Zm6.129-11.008h2.11v1.953h-2.11Zm0,3.034h2.11v7.974h-2.11Zm6.062,7.974h-2.11v-7.974h1.96v1.134a3.4,3.4,0,0,1,.906-1.059,1.657,1.657,0,0,1,.912-.255,2.675,2.675,0,0,1,1.389.4l-.653,1.84a1.853,1.853,0,0,0-.991-.345,1.177,1.177,0,0,0-.751.244,1.669,1.669,0,0,0-.484.882,12.577,12.577,0,0,0-.176,2.673Zm3.245-4.1a4.318,4.318,0,0,1,.519-2.035,3.568,3.568,0,0,1,1.468-1.5,4.37,4.37,0,0,1,2.121-.517,3.978,3.978,0,0,1,2.966,1.175,4.062,4.062,0,0,1,1.156,2.969,4.11,4.11,0,0,1-1.168,3,3.949,3.949,0,0,1-2.94,1.19,4.631,4.631,0,0,1-2.091-.5,3.4,3.4,0,0,1-1.513-1.453,4.842,4.842,0,0,1-.519-2.332m2.163.114a2.638,2.638,0,0,0,.564,1.816,1.841,1.841,0,0,0,2.775,0,2.681,2.681,0,0,0,.559-1.832,2.633,2.633,0,0,0-.559-1.8,1.841,1.841,0,0,0-2.775,0,2.645,2.645,0,0,0-.564,1.819m14.742,3.986h-2.11v-4.07a6.32,6.32,0,0,0-.134-1.671,1.169,1.169,0,0,0-.44-.589,1.249,1.249,0,0,0-.732-.21,1.691,1.691,0,0,0-.983.3,1.515,1.515,0,0,0-.6.8,6.93,6.93,0,0,0-.16,1.832v3.612h-2.11v-7.974h1.96v1.171a3.272,3.272,0,0,1,3.905-1.1,2.148,2.148,0,0,1,.875.643,2.322,2.322,0,0,1,.413.885,6.6,6.6,0,0,1,.116,1.42Zm1.752-7.974h1.945v1.087a3.132,3.132,0,0,1,2.485-1.268,2.673,2.673,0,0,1,1.329.315,2.429,2.429,0,0,1,.924.952,3.71,3.71,0,0,1,1.134-.952,2.783,2.783,0,0,1,1.3-.315,2.894,2.894,0,0,1,1.486.356,2.178,2.178,0,0,1,.908,1.049,4.526,4.526,0,0,1,.218,1.652v5.1h-2.11v-4.558a3.378,3.378,0,0,0-.217-1.531,1,1,0,0,0-.9-.451,1.432,1.432,0,0,0-.833.271,1.5,1.5,0,0,0-.564.792,5.684,5.684,0,0,0-.172,1.648v3.829h-2.11v-4.371a6.077,6.077,0,0,0-.112-1.5.969.969,0,0,0-.349-.5,1.113,1.113,0,0,0-.643-.164,1.537,1.537,0,0,0-.878.262,1.451,1.451,0,0,0-.56.759,5.654,5.654,0,0,0-.169,1.644v3.874H118.3Zm18.218,5.437,2.1.353a3.437,3.437,0,0,1-1.281,1.76,3.756,3.756,0,0,1-2.189.6,3.567,3.567,0,0,1-3.078-1.36,4.56,4.56,0,0,1-.788-2.747,4.408,4.408,0,0,1,1.036-3.106,3.415,3.415,0,0,1,2.62-1.122,3.541,3.541,0,0,1,2.809,1.175,5.2,5.2,0,0,1,.983,3.6h-5.287a2.138,2.138,0,0,0,.511,1.461,1.6,1.6,0,0,0,1.217.521,1.293,1.293,0,0,0,.833-.27,1.674,1.674,0,0,0,.51-.871m.121-2.133a2.037,2.037,0,0,0-.473-1.393,1.524,1.524,0,0,0-2.238.026,1.948,1.948,0,0,0-.443,1.367Zm10.838,4.671h-2.11v-4.07a6.267,6.267,0,0,0-.135-1.671,1.163,1.163,0,0,0-.439-.589,1.251,1.251,0,0,0-.732-.21,1.7,1.7,0,0,0-.984.3,1.509,1.509,0,0,0-.6.8,6.919,6.919,0,0,0-.161,1.832v3.612h-2.11v-7.974h1.96v1.171a3.271,3.271,0,0,1,3.9-1.1,2.145,2.145,0,0,1,.875.643,2.308,2.308,0,0,1,.412.885,6.588,6.588,0,0,1,.117,1.42Zm5.567-7.974v1.682H151.6v3.213a8.2,8.2,0,0,0,.04,1.137.474.474,0,0,0,.189.268.6.6,0,0,0,.356.1,2.742,2.742,0,0,0,.849-.2l.18,1.636a4.192,4.192,0,0,1-1.667.315,2.648,2.648,0,0,1-1.029-.191,1.508,1.508,0,0,1-.672-.5,1.954,1.954,0,0,1-.3-.823,10.22,10.22,0,0,1-.068-1.486v-3.477h-.969v-1.682h.969v-1.586l2.118-1.231v2.817Zm2.81,2.433-1.915-.346a2.983,2.983,0,0,1,1.112-1.712,4.073,4.073,0,0,1,2.343-.555,5.058,5.058,0,0,1,2.1.334,2.09,2.09,0,0,1,.972.848,4.346,4.346,0,0,1,.282,1.888l-.022,2.463a8.6,8.6,0,0,0,.1,1.551,4.6,4.6,0,0,0,.379,1.07h-2.087c-.055-.14-.123-.348-.2-.622-.035-.126-.06-.209-.076-.249a3.8,3.8,0,0,1-1.156.789,3.312,3.312,0,0,1-1.313.262,2.714,2.714,0,0,1-1.941-.669,2.219,2.219,0,0,1-.71-1.689,2.276,2.276,0,0,1,.323-1.206,2.118,2.118,0,0,1,.906-.811,7.142,7.142,0,0,1,1.678-.492,11.382,11.382,0,0,0,2.05-.519v-.21a1.1,1.1,0,0,0-.3-.867,1.809,1.809,0,0,0-1.134-.258,1.506,1.506,0,0,0-.878.221,1.544,1.544,0,0,0-.511.776m2.824,1.712q-.406.134-1.284.323a3.859,3.859,0,0,0-1.15.368.88.88,0,0,0-.413.744,1.029,1.029,0,0,0,.331.764,1.148,1.148,0,0,0,.841.324,1.83,1.83,0,0,0,1.088-.376,1.321,1.321,0,0,0,.5-.7,4.157,4.157,0,0,0,.083-1.028Zm3.922-7.179h2.11v11.008H162.6Zm7.536,7.426,2.162-.21a2.647,2.647,0,0,0,.792,1.6,2.4,2.4,0,0,0,1.611.51,2.473,2.473,0,0,0,1.617-.454,1.352,1.352,0,0,0,.545-1.062,1,1,0,0,0-.23-.665,1.825,1.825,0,0,0-.8-.477q-.39-.134-1.78-.48a6.05,6.05,0,0,1-2.508-1.088,2.868,2.868,0,0,1-1.013-2.216,2.826,2.826,0,0,1,.477-1.573,2.981,2.981,0,0,1,1.374-1.115,5.518,5.518,0,0,1,2.167-.383,4.64,4.64,0,0,1,3.119.908,3.2,3.2,0,0,1,1.1,2.426l-2.222.1a1.9,1.9,0,0,0-.612-1.221,2.253,2.253,0,0,0-1.409-.371,2.545,2.545,0,0,0-1.517.4.8.8,0,0,0-.352.684.841.841,0,0,0,.33.668,5.844,5.844,0,0,0,2.042.737,10.728,10.728,0,0,1,2.4.792,3.091,3.091,0,0,1,1.217,1.119,3.466,3.466,0,0,1-.086,3.526,3.15,3.15,0,0,1-1.486,1.228,6.249,6.249,0,0,1-2.4.4,4.766,4.766,0,0,1-3.206-.966,4.2,4.2,0,0,1-1.337-2.812m17.528-2.035-2.08.376a1.514,1.514,0,0,0-.477-.938,1.443,1.443,0,0,0-.965-.316,1.572,1.572,0,0,0-1.257.545,2.785,2.785,0,0,0-.47,1.821,3.23,3.23,0,0,0,.477,2.006,1.565,1.565,0,0,0,1.281.584,1.421,1.421,0,0,0,.983-.341,2.061,2.061,0,0,0,.541-1.175l2.072.352a3.671,3.671,0,0,1-1.239,2.154,3.834,3.834,0,0,1-2.456.729,3.657,3.657,0,0,1-2.789-1.1,5.031,5.031,0,0,1,0-6.131,3.709,3.709,0,0,1,2.824-1.1,3.856,3.856,0,0,1,2.317.626,3.483,3.483,0,0,1,1.235,1.911m1.368-5.392h2.11v1.953h-2.11Zm0,3.034h2.11v7.974h-2.11Zm8.66,5.437,2.1.353a3.443,3.443,0,0,1-1.281,1.76,3.755,3.755,0,0,1-2.188.6,3.567,3.567,0,0,1-3.079-1.36,4.56,4.56,0,0,1-.788-2.747,4.4,4.4,0,0,1,1.037-3.106,3.412,3.412,0,0,1,2.62-1.122,3.537,3.537,0,0,1,2.808,1.175,5.2,5.2,0,0,1,.983,3.6h-5.286a2.134,2.134,0,0,0,.51,1.461,1.6,1.6,0,0,0,1.217.521,1.292,1.292,0,0,0,.833-.27,1.675,1.675,0,0,0,.511-.871m.12-2.133a2.028,2.028,0,0,0-.473-1.393,1.524,1.524,0,0,0-2.238.026,1.952,1.952,0,0,0-.443,1.367Zm10.838,4.671h-2.11v-4.07a6.266,6.266,0,0,0-.135-1.671,1.162,1.162,0,0,0-.439-.589,1.249,1.249,0,0,0-.732-.21,1.7,1.7,0,0,0-.984.3,1.514,1.514,0,0,0-.6.8,6.918,6.918,0,0,0-.161,1.832v3.612h-2.109v-7.974h1.96v1.171a3.191,3.191,0,0,1,2.628-1.351,3.158,3.158,0,0,1,1.276.251,2.145,2.145,0,0,1,.876.643,2.307,2.307,0,0,1,.412.885,6.532,6.532,0,0,1,.117,1.42Zm8.863-5.617-2.08.376a1.514,1.514,0,0,0-.477-.938,1.442,1.442,0,0,0-.965-.316,1.572,1.572,0,0,0-1.257.545,2.785,2.785,0,0,0-.47,1.821,3.23,3.23,0,0,0,.477,2.006,1.565,1.565,0,0,0,1.281.584,1.421,1.421,0,0,0,.983-.341,2.056,2.056,0,0,0,.541-1.175l2.072.352a3.671,3.671,0,0,1-1.239,2.154,3.834,3.834,0,0,1-2.456.729,3.657,3.657,0,0,1-2.789-1.1,5.029,5.029,0,0,1,0-6.131,3.706,3.706,0,0,1,2.823-1.1,3.856,3.856,0,0,1,2.317.626,3.483,3.483,0,0,1,1.235,1.911m5.986,3.079,2.1.353a3.446,3.446,0,0,1-1.281,1.76,3.758,3.758,0,0,1-2.189.6,3.565,3.565,0,0,1-3.078-1.36,4.56,4.56,0,0,1-.788-2.747,4.4,4.4,0,0,1,1.036-3.106,3.415,3.415,0,0,1,2.62-1.122,3.538,3.538,0,0,1,2.808,1.175,5.2,5.2,0,0,1,.984,3.6h-5.287a2.138,2.138,0,0,0,.511,1.461,1.6,1.6,0,0,0,1.216.521,1.294,1.294,0,0,0,.834-.27,1.68,1.68,0,0,0,.51-.871m.121-2.133a2.037,2.037,0,0,0-.473-1.393,1.524,1.524,0,0,0-2.238.026,1.944,1.944,0,0,0-.443,1.367Zm7.641,4.671V100.441h3.567a12.913,12.913,0,0,1,2.643.165,2.888,2.888,0,0,1,1.585,1.077,3.423,3.423,0,0,1,.638,2.145,3.586,3.586,0,0,1-.368,1.7,3.029,3.029,0,0,1-.934,1.086,3.228,3.228,0,0,1-1.153.521,12.705,12.705,0,0,1-2.305.157h-1.449v4.153Zm2.222-9.146v3.124H234.7a5.707,5.707,0,0,0,1.757-.173,1.448,1.448,0,0,0,.694-.54,1.474,1.474,0,0,0,.252-.855,1.418,1.418,0,0,0-.353-.991,1.542,1.542,0,0,0-.894-.489,10.7,10.7,0,0,0-1.6-.075Zm9.81,9.146h-2.11v-7.974h1.96v1.134a3.4,3.4,0,0,1,.906-1.059,1.657,1.657,0,0,1,.912-.255,2.675,2.675,0,0,1,1.389.4l-.653,1.84a1.853,1.853,0,0,0-.991-.345,1.177,1.177,0,0,0-.751.244,1.669,1.669,0,0,0-.484.882,12.578,12.578,0,0,0-.176,2.673Zm3.245-4.1a4.318,4.318,0,0,1,.519-2.035,3.568,3.568,0,0,1,1.468-1.5,4.37,4.37,0,0,1,2.121-.517,3.978,3.978,0,0,1,2.966,1.175,4.062,4.062,0,0,1,1.156,2.969,4.106,4.106,0,0,1-1.168,3,3.948,3.948,0,0,1-2.94,1.19,4.631,4.631,0,0,1-2.091-.5,3.4,3.4,0,0,1-1.513-1.453,4.842,4.842,0,0,1-.519-2.332m2.163.114a2.638,2.638,0,0,0,.564,1.816,1.841,1.841,0,0,0,2.775,0,2.681,2.681,0,0,0,.559-1.832,2.633,2.633,0,0,0-.559-1.8,1.841,1.841,0,0,0-2.775,0,2.644,2.644,0,0,0-.564,1.819m7.294,4.512,2.41.294a.827.827,0,0,0,.277.577,1.591,1.591,0,0,0,.946.225,2.442,2.442,0,0,0,1.239-.248,1.014,1.014,0,0,0,.421-.533,3.222,3.222,0,0,0,.1-.969v-1.163A2.853,2.853,0,0,1,259,111.449a2.94,2.94,0,0,1-2.546-1.36,4.617,4.617,0,0,1-.736-2.673,4.4,4.4,0,0,1,.966-3.064,3.115,3.115,0,0,1,2.4-1.057,2.922,2.922,0,0,1,2.44,1.3v-1.118H263.5v7.155a7.135,7.135,0,0,1-.233,2.111,2.612,2.612,0,0,1-.653,1.1,2.907,2.907,0,0,1-1.122.624,5.931,5.931,0,0,1-1.777.224,4.6,4.6,0,0,1-2.876-.694,2.177,2.177,0,0,1-.849-1.761c0-.07,0-.155.008-.255m1.885-4.679a2.88,2.88,0,0,0,.491,1.86,1.52,1.52,0,0,0,1.213.59,1.678,1.678,0,0,0,1.306-.6,2.634,2.634,0,0,0,.533-1.792,2.79,2.79,0,0,0-.51-1.839,1.621,1.621,0,0,0-1.292-.6,1.556,1.556,0,0,0-1.251.589,2.766,2.766,0,0,0-.491,1.8m9.494,4.153h-2.11v-7.974h1.96v1.134a3.406,3.406,0,0,1,.9-1.059,1.659,1.659,0,0,1,.912-.255,2.68,2.68,0,0,1,1.39.4l-.654,1.84a1.851,1.851,0,0,0-.991-.345,1.173,1.173,0,0,0-.751.244,1.663,1.663,0,0,0-.485.882,12.577,12.577,0,0,0-.176,2.673Zm5.311-5.542-1.915-.346a2.983,2.983,0,0,1,1.112-1.712,4.073,4.073,0,0,1,2.343-.555,5.051,5.051,0,0,1,2.1.334,2.093,2.093,0,0,1,.973.848,4.347,4.347,0,0,1,.282,1.888l-.022,2.463a8.6,8.6,0,0,0,.1,1.551,4.6,4.6,0,0,0,.379,1.07H275.95q-.083-.211-.2-.622c-.034-.126-.059-.209-.075-.249a3.813,3.813,0,0,1-1.156.789,3.313,3.313,0,0,1-1.314.262,2.716,2.716,0,0,1-1.941-.669,2.222,2.222,0,0,1-.709-1.689,2.268,2.268,0,0,1,.323-1.206,2.121,2.121,0,0,1,.9-.811,7.15,7.15,0,0,1,1.679-.492,11.424,11.424,0,0,0,2.05-.519v-.21a1.1,1.1,0,0,0-.3-.867,1.809,1.809,0,0,0-1.134-.258,1.506,1.506,0,0,0-.878.221,1.539,1.539,0,0,0-.511.776m2.824,1.712q-.406.134-1.284.323a3.849,3.849,0,0,0-1.15.368.88.88,0,0,0-.413.744,1.032,1.032,0,0,0,.33.764,1.151,1.151,0,0,0,.841.324,1.831,1.831,0,0,0,1.089-.376,1.321,1.321,0,0,0,.5-.7,4.155,4.155,0,0,0,.083-1.028Zm3.764-4.145h1.945v1.087a3.132,3.132,0,0,1,2.485-1.268,2.673,2.673,0,0,1,1.329.315,2.429,2.429,0,0,1,.924.952,3.7,3.7,0,0,1,1.134-.952,2.783,2.783,0,0,1,1.3-.315,2.894,2.894,0,0,1,1.486.356,2.182,2.182,0,0,1,.908,1.049,4.525,4.525,0,0,1,.218,1.652v5.1h-2.11v-4.558a3.391,3.391,0,0,0-.217-1.531,1,1,0,0,0-.9-.451,1.432,1.432,0,0,0-.833.271,1.5,1.5,0,0,0-.564.792,5.685,5.685,0,0,0-.172,1.648v3.829h-2.11v-4.371a6.017,6.017,0,0,0-.113-1.5.963.963,0,0,0-.348-.5,1.113,1.113,0,0,0-.643-.164,1.535,1.535,0,0,0-.878.262,1.451,1.451,0,0,0-.56.759,5.655,5.655,0,0,0-.169,1.644v3.874h-2.109ZM72.846,11.773c2.489,3.119,2.4,7.058,4.319,10.541,1.711,3.1,8.311,7.648,12.417,4.859,3.724-2.533,2.77-7.582,2.205-11C91.122,12.128,91.522,7,90.066,3.19,88.309-1.41,82.731-.148,78.655,1.5c-3.69,1.5-7.087,3.358-11.32,3.547a64.056,64.056,0,0,1-12.48-1.162c5.23.823,12.386,3.225,16.305,6.236a9.647,9.647,0,0,1,1.686,1.648m20.62,18.339a9.291,9.291,0,0,1-4.5.826c-4.738-.2-10.821-3.716-14.679.284-5.46,5.663,3.252,13.507,9.045,15.947,6.484,2.733,15.538,3.892,21.352-.457a8.384,8.384,0,0,0,2.813-8.671c-1.7-6.771-5.694-14.4-8.922-20.832.365,4.148-.377,10.615-5.11,12.9M48.159,47.818a9.644,9.644,0,0,1,1.362-5.636c.935-1.793,2.141-3.53,2.981-5.279,1.239-2.577,3.165-6.606.387-9-5.343-4.6-14.714,1.873-18.628,4.692a26.27,26.27,0,0,0-9.043,11.2c-2.11,5.044-3.936,10.741-.683,15.686,3.209,4.88,10.673,8.135,15.858,4.246,1.927-1.446,3.665-3.1,5.5-4.652A29.712,29.712,0,0,1,51.714,54.9c2.054-1.009,4.529-1.152,6.765-1.453.707-.1,1.417-.19,2.123-.294a6.758,6.758,0,0,0-3.392-1.281,25.674,25.674,0,0,1-7.322-1.143,3.635,3.635,0,0,1-1.73-2.914m-2.965-24A56.244,56.244,0,0,1,56.2,22.713c5-.064,19.157.5,14.6-6.869a8.108,8.108,0,0,0-1.212-1.488c-6.391-4.725-18.73-13.062-24.694-3.3C40.722,17.875,32.868,21.93,26.152,26.914c-2.5,1.855-6.992,6.572-5.465,9.506,2.619,5.032,6.972-2.765,8.6-4.335a31.609,31.609,0,0,1,15.908-8.262m55.285,54.486c-2.447.2-5.045-.948-6.876-1.338-1.423-.3-3.39-.537-4.448.425a2.808,2.808,0,0,0-.36,3.713A7.312,7.312,0,0,0,94.851,84.9c5.212.031,10.655-4.463,12.333-11.039-2.009,3.131-3.917,4.225-6.705,4.447M62.624,50.448c.962.491,1.855,1.1,2.807,1.608,1.933,1.03,3.841,2.122,5.753,3.189,2.028,1.131,4.063,2.246,6.088,3.383,1.61.9,3.228,1.792,4.843,2.686l2,1.1C107.105,79.851,105,49.674,105,49.674c-13.475,9.987-30.933-3.93-30.933-3.93C69.616,41.705,63,36.76,57.125,40.859a12.159,12.159,0,0,0-2.944,3A2.763,2.763,0,0,0,55.094,48a9.4,9.4,0,0,0,2.738,1.155c.541.149,1.091.271,1.642.379.508.1.988.188,1.457.3a7.557,7.557,0,0,1,1.693.609m61.716-13.1V21.338h4.839l2.906,10.922,2.872-10.922h4.85V37.35h-3v-12.6l-3.178,12.6h-3.113l-3.167-12.6v12.6Zm20.613-8.061-2.785-.5a4.337,4.337,0,0,1,1.617-2.49,5.909,5.909,0,0,1,3.407-.808,7.359,7.359,0,0,1,3.058.486,3.057,3.057,0,0,1,1.415,1.234,6.331,6.331,0,0,1,.409,2.747l-.033,3.582a12.451,12.451,0,0,0,.147,2.256,6.561,6.561,0,0,0,.551,1.556H149.7c-.08-.2-.178-.507-.295-.907-.051-.182-.087-.3-.109-.36a5.577,5.577,0,0,1-1.682,1.147,4.82,4.82,0,0,1-1.912.382,3.947,3.947,0,0,1-2.823-.972,3.23,3.23,0,0,1-1.032-2.458,3.3,3.3,0,0,1,.47-1.753,3.062,3.062,0,0,1,1.317-1.18,10.235,10.235,0,0,1,2.44-.715,16.639,16.639,0,0,0,2.982-.754v-.306a1.593,1.593,0,0,0-.437-1.262,2.623,2.623,0,0,0-1.649-.377,2.2,2.2,0,0,0-1.278.322,2.231,2.231,0,0,0-.743,1.131m4.107,2.49a19.189,19.189,0,0,1-1.868.47,5.591,5.591,0,0,0-1.671.535,1.279,1.279,0,0,0-.6,1.081,1.5,1.5,0,0,0,.481,1.114,1.68,1.68,0,0,0,1.223.47,2.656,2.656,0,0,0,1.584-.546,1.927,1.927,0,0,0,.732-1.016,6.043,6.043,0,0,0,.121-1.5Zm8.642,5.57h-3.069v-11.6h2.851V27.4a4.943,4.943,0,0,1,1.316-1.54,2.422,2.422,0,0,1,1.327-.371,3.885,3.885,0,0,1,2.021.579l-.951,2.676a2.7,2.7,0,0,0-1.442-.5,1.7,1.7,0,0,0-1.092.355,2.421,2.421,0,0,0-.7,1.283,18.27,18.27,0,0,0-.257,3.889Zm5.431-16.012H166.2v2.839h-3.069Zm0,4.413H166.2v11.6h-3.069Zm16.43,11.6H176.5V31.43a9.1,9.1,0,0,0-.2-2.43,1.7,1.7,0,0,0-.639-.857,1.829,1.829,0,0,0-1.065-.306,2.464,2.464,0,0,0-1.43.437,2.195,2.195,0,0,0-.869,1.158,10,10,0,0,0-.234,2.664V37.35h-3.069v-11.6h2.851v1.7a4.643,4.643,0,0,1,3.823-1.966,4.593,4.593,0,0,1,1.857.366,3.125,3.125,0,0,1,1.273.933,3.4,3.4,0,0,1,.6,1.289,9.648,9.648,0,0,1,.169,2.065Zm9.494-3.692,3.058.514a5.02,5.02,0,0,1-1.862,2.561,5.475,5.475,0,0,1-3.184.879,5.191,5.191,0,0,1-4.478-1.977,6.642,6.642,0,0,1-1.147-4,6.4,6.4,0,0,1,1.508-4.516,4.964,4.964,0,0,1,3.811-1.633,5.15,5.15,0,0,1,4.085,1.71q1.5,1.71,1.43,5.237h-7.689a3.1,3.1,0,0,0,.743,2.125,2.322,2.322,0,0,0,1.769.758,1.879,1.879,0,0,0,1.212-.393,2.432,2.432,0,0,0,.743-1.267m.175-3.1a2.958,2.958,0,0,0-.689-2.026,2.11,2.11,0,0,0-1.594-.694,2.135,2.135,0,0,0-1.661.732,2.835,2.835,0,0,0-.645,1.988ZM131.8,56.89a7.337,7.337,0,0,1-2.1,1.311,6.056,6.056,0,0,1-2.168.383,4.211,4.211,0,0,1-2.938-.934,3.08,3.08,0,0,1-1.027-2.386,3.234,3.234,0,0,1,1.4-2.687,4.782,4.782,0,0,1,1.414-.645,13.814,13.814,0,0,1,1.748-.295,18.015,18.015,0,0,0,3.506-.677c.007-.269.011-.441.011-.514a2.168,2.168,0,0,0-.558-1.692,3.293,3.293,0,0,0-2.239-.667,3.478,3.478,0,0,0-2.048.486,2.969,2.969,0,0,0-.977,1.721l-1.922-.262a4.763,4.763,0,0,1,.863-1.994,3.782,3.782,0,0,1,1.737-1.168,7.736,7.736,0,0,1,2.632-.409,6.984,6.984,0,0,1,2.415.349,3.182,3.182,0,0,1,1.365.88,3.109,3.109,0,0,1,.612,1.338,11.071,11.071,0,0,1,.1,1.813v2.621a27.657,27.657,0,0,0,.126,3.468,4.351,4.351,0,0,0,.5,1.393h-2.053a4.155,4.155,0,0,1-.393-1.431m-.164-4.39a14.415,14.415,0,0,1-3.211.743,7.413,7.413,0,0,0-1.715.393,1.711,1.711,0,0,0-.776.639,1.738,1.738,0,0,0,.322,2.245,2.562,2.562,0,0,0,1.742.524,4.049,4.049,0,0,0,2.021-.5,3.066,3.066,0,0,0,1.3-1.36,4.745,4.745,0,0,0,.317-1.966Zm4.7,5.822v-11.6h1.77v1.649a4.17,4.17,0,0,1,3.692-1.911,4.853,4.853,0,0,1,1.928.377,3.037,3.037,0,0,1,1.316.988,3.8,3.8,0,0,1,.612,1.453,11.294,11.294,0,0,1,.109,1.911v7.132H143.8V51.265a5.285,5.285,0,0,0-.229-1.8,1.889,1.889,0,0,0-.813-.95,2.593,2.593,0,0,0-1.371-.355,3.187,3.187,0,0,0-2.168.8,3.933,3.933,0,0,0-.912,3.025v6.335Zm19.631,0V56.857a3.607,3.607,0,0,1-3.243,1.726,4.551,4.551,0,0,1-2.551-.764,5.025,5.025,0,0,1-1.8-2.135,7.372,7.372,0,0,1-.639-3.151,8.25,8.25,0,0,1,.579-3.151,4.569,4.569,0,0,1,1.736-2.168,4.643,4.643,0,0,1,2.589-.753,3.871,3.871,0,0,1,1.868.442,3.916,3.916,0,0,1,1.332,1.152V42.309h1.955V58.321Zm-6.215-5.789a5.037,5.037,0,0,0,.939,3.331,2.832,2.832,0,0,0,2.217,1.1,2.781,2.781,0,0,0,2.19-1.054A4.862,4.862,0,0,0,156,52.7a5.46,5.46,0,0,0-.917-3.5,2.823,2.823,0,0,0-2.261-1.114,2.723,2.723,0,0,0-2.19,1.071,5.284,5.284,0,0,0-.879,3.374m27.072-.1,3.135.994a7.031,7.031,0,0,1-2.4,3.893,7.543,7.543,0,0,1-9.5-.907,8.337,8.337,0,0,1-2.053-5.958,8.753,8.753,0,0,1,2.064-6.21,7.077,7.077,0,0,1,5.429-2.211,6.66,6.66,0,0,1,4.773,1.736,6.321,6.321,0,0,1,1.638,2.949l-3.2.764a3.308,3.308,0,0,0-3.375-2.687,3.644,3.644,0,0,0-2.888,1.278,6.265,6.265,0,0,0-1.109,4.14q0,3.038,1.093,4.325a3.545,3.545,0,0,0,2.839,1.289,3.237,3.237,0,0,0,2.217-.819,4.757,4.757,0,0,0,1.333-2.577m4.841-.077a6.278,6.278,0,0,1,.754-2.96,5.172,5.172,0,0,1,2.135-2.184,6.333,6.333,0,0,1,3.085-.753,5.792,5.792,0,0,1,4.315,1.71,5.9,5.9,0,0,1,1.682,4.319,5.981,5.981,0,0,1-1.7,4.364,5.743,5.743,0,0,1-4.276,1.731,6.738,6.738,0,0,1-3.042-.72,4.943,4.943,0,0,1-2.2-2.114,7.041,7.041,0,0,1-.754-3.392m3.145.164a3.843,3.843,0,0,0,.819,2.644,2.677,2.677,0,0,0,4.035,0,3.9,3.9,0,0,0,.814-2.665,3.828,3.828,0,0,0-.814-2.621,2.677,2.677,0,0,0-4.035,0,3.842,3.842,0,0,0-.819,2.643M198,50.26l-2.785-.5a4.341,4.341,0,0,1,1.617-2.49,5.909,5.909,0,0,1,3.407-.808,7.345,7.345,0,0,1,3.058.486,3.053,3.053,0,0,1,1.415,1.234,6.328,6.328,0,0,1,.409,2.747l-.033,3.582a12.453,12.453,0,0,0,.147,2.256,6.562,6.562,0,0,0,.551,1.556h-3.036c-.081-.2-.179-.507-.3-.907-.051-.182-.087-.3-.109-.36a5.558,5.558,0,0,1-1.682,1.146,4.8,4.8,0,0,1-1.911.383,3.949,3.949,0,0,1-2.824-.972,3.235,3.235,0,0,1-1.032-2.458,3.3,3.3,0,0,1,.47-1.753,3.067,3.067,0,0,1,1.317-1.18,10.232,10.232,0,0,1,2.441-.715,16.644,16.644,0,0,0,2.982-.754v-.306a1.593,1.593,0,0,0-.437-1.262,2.621,2.621,0,0,0-1.649-.377,2.2,2.2,0,0,0-1.278.322A2.231,2.231,0,0,0,198,50.26m4.107,2.49a19.189,19.189,0,0,1-1.868.47,5.591,5.591,0,0,0-1.671.535,1.279,1.279,0,0,0-.6,1.081,1.5,1.5,0,0,0,.481,1.113,1.676,1.676,0,0,0,1.223.47,2.655,2.655,0,0,0,1.584-.545,1.927,1.927,0,0,0,.732-1.016,6.051,6.051,0,0,0,.121-1.5Zm4.622,2.26,3.081-.47a2.254,2.254,0,0,0,.8,1.36,2.688,2.688,0,0,0,1.682.464,3.038,3.038,0,0,0,1.792-.437.976.976,0,0,0,.4-.819.8.8,0,0,0-.219-.578,2.438,2.438,0,0,0-1.026-.4,16.508,16.508,0,0,1-4.708-1.5,2.987,2.987,0,0,1-1.376-2.61,3.217,3.217,0,0,1,1.19-2.534,5.565,5.565,0,0,1,3.692-1.026,6.434,6.434,0,0,1,3.539.776,3.973,3.973,0,0,1,1.6,2.294l-2.895.535a1.787,1.787,0,0,0-.7-1.038,2.574,2.574,0,0,0-1.48-.361,3.34,3.34,0,0,0-1.736.339.726.726,0,0,0-.35.623.677.677,0,0,0,.306.557,11.543,11.543,0,0,0,2.867.863,8.533,8.533,0,0,1,3.424,1.366,2.837,2.837,0,0,1,.961,2.283,3.5,3.5,0,0,1-1.332,2.741,5.9,5.9,0,0,1-3.943,1.147,6.474,6.474,0,0,1-3.752-.961,4.43,4.43,0,0,1-1.808-2.611m18.506-8.29v2.446h-2.1v4.675a11.536,11.536,0,0,0,.06,1.654.668.668,0,0,0,.273.388.862.862,0,0,0,.519.153,3.978,3.978,0,0,0,1.234-.295l.262,2.381a6.1,6.1,0,0,1-2.425.458,3.85,3.85,0,0,1-1.5-.278,2.175,2.175,0,0,1-.977-.721,2.843,2.843,0,0,1-.432-1.2,14.871,14.871,0,0,1-.1-2.162V49.168h-1.409V46.721h1.409v-2.3l3.08-1.792v4.1Zm4.087,3.539-2.785-.5a4.341,4.341,0,0,1,1.617-2.49,5.912,5.912,0,0,1,3.408-.808,7.348,7.348,0,0,1,3.058.486,3.05,3.05,0,0,1,1.414,1.234,6.328,6.328,0,0,1,.409,2.747l-.033,3.582a12.358,12.358,0,0,0,.148,2.256,6.563,6.563,0,0,0,.552,1.556h-3.037c-.08-.2-.179-.507-.295-.907-.052-.182-.088-.3-.109-.36a5.548,5.548,0,0,1-1.682,1.146,4.8,4.8,0,0,1-1.911.383,3.95,3.95,0,0,1-2.824-.972,3.234,3.234,0,0,1-1.031-2.458,3.294,3.294,0,0,1,.47-1.753A3.065,3.065,0,0,1,228,52.221a10.244,10.244,0,0,1,2.441-.715,16.624,16.624,0,0,0,2.982-.754v-.306a1.59,1.59,0,0,0-.437-1.262,2.621,2.621,0,0,0-1.649-.377,2.2,2.2,0,0,0-1.278.322,2.237,2.237,0,0,0-.743,1.131m4.107,2.49a19.16,19.16,0,0,1-1.867.47,5.582,5.582,0,0,0-1.671.535,1.278,1.278,0,0,0-.6,1.081,1.5,1.5,0,0,0,.481,1.113,1.679,1.679,0,0,0,1.224.47,2.659,2.659,0,0,0,1.584-.545,1.936,1.936,0,0,0,.732-1.016,6.108,6.108,0,0,0,.12-1.5Zm5.7-10.442H242.2V58.32h-3.069Z" transform="translate(0 0)" fill="#035289"/>
  </g>
</svg>
